<?xml version="1.0" encoding="UTF-8"?>
<svg width="21px" height="22px" viewBox="0 0 21 22" version="1.1" xmlns="http://www.w3.org/2000/svg" xmlns:xlink="http://www.w3.org/1999/xlink">
    <!-- Generator: Sketch 51.3 (57544) - http://www.bohemiancoding.com/sketch -->
    <title>Mis olores</title>
    <desc>Created with Sketch.</desc>
    <defs></defs>
    <g id="Others" stroke="none" stroke-width="1" fill="none" fill-rule="evenodd" opacity="0.6">
        <g id="Menu-Logged" transform="translate(-30.000000, -172.000000)" stroke="#FFFFFF">
            <path d="M32.5,193.048913 C31.6715729,193.048913 31,192.366391 31,191.524457 C31,190.682522 31.6715729,190 32.5,190 C33.3284271,190 34,190.682522 34,191.524457 C34,192.366391 33.3284271,193.048913 32.5,193.048913 Z M34.5,186.048913 C33.6715729,186.048913 33,185.366391 33,184.524457 C33,183.682522 33.6715729,183 34.5,183 C35.3284271,183 36,183.682522 36,184.524457 C36,185.366391 35.3284271,186.048913 34.5,186.048913 Z M40.4090909,188.896739 C39.0785867,188.896739 38,187.800567 38,186.44837 C38,185.096172 39.0785867,184 40.4090909,184 C41.7395951,184 42.8181818,185.096172 42.8181818,186.44837 C42.8181818,187.800567 41.7395951,188.896739 40.4090909,188.896739 Z M35.5160428,179.048913 C34.1441911,179.048913 33.0320856,177.918675 33.0320856,176.524457 C33.0320856,175.130238 34.1441911,174 35.5160428,174 C36.8878945,174 38,175.130238 38,176.524457 C38,177.918675 36.8878945,179.048913 35.5160428,179.048913 Z M45.3770053,181.896739 C42.959652,181.896739 41,179.905136 41,177.44837 C41,174.991603 42.959652,173 45.3770053,173 C47.7943587,173 49.7540107,174.991603 49.7540107,177.44837 C49.7540107,179.905136 47.7943587,181.896739 45.3770053,181.896739 Z" id="Mis-olores"></path>
        </g>
    </g>
</svg>