<?xml version="1.0" encoding="UTF-8"?>
<svg width="16px" height="20px" viewBox="0 0 16 20" version="1.1" xmlns="http://www.w3.org/2000/svg" xmlns:xlink="http://www.w3.org/1999/xlink">
    <!-- Generator: Sketch 51.3 (57544) - http://www.bohemiancoding.com/sketch -->
    <title>perfil</title>
    <desc>Created with Sketch.</desc>
    <defs></defs>
    <g id="Others" stroke="none" stroke-width="1" fill="none" fill-rule="evenodd" opacity="0.6">
        <g id="Menu-Logged" transform="translate(-33.000000, -124.000000)" stroke="#FFFFFF">
            <path d="M35.6779919,135.939878 L33.9274782,139.838688 C33.3739425,141.071543 33.9603346,142.339262 35.3238739,142.734482 C35.5116571,142.820277 35.9411986,142.960686 36.6346036,143.105141 C37.8166576,143.351394 39.3061379,143.5 41.124933,143.5 C42.9438673,143.5 44.44338,143.350473 45.6421133,143.102601 C46.0559472,143.017029 46.4015179,142.926033 46.6811721,142.835978 C46.8420324,142.784177 46.9415931,142.746043 47.0592877,142.700813 C48.3438547,142.364221 48.8834495,141.119878 48.2743742,139.908857 L46.2628876,135.909429 C45.6030979,134.597572 43.8292602,133.5 42.3677954,133.5 L39.4413632,133.5 C37.9827327,133.5 36.2764247,134.607025 35.6779919,135.939878 Z M41,131.5 C42.9329966,131.5 44.5,129.932997 44.5,128 C44.5,126.067003 42.9329966,124.5 41,124.5 C39.0670034,124.5 37.5,126.067003 37.5,128 C37.5,129.932997 39.0670034,131.5 41,131.5 Z" id="perfil"></path>
        </g>
    </g>
</svg>