<?xml version="1.0" encoding="UTF-8"?>
<svg width="17px" height="22px" viewBox="0 0 17 22" version="1.1" xmlns="http://www.w3.org/2000/svg" xmlns:xlink="http://www.w3.org/1999/xlink">
    <!-- Generator: Sketch 51.3 (57544) - http://www.bohemiancoding.com/sketch -->
    <title>Oval</title>
    <desc>Created with Sketch.</desc>
    <defs></defs>
    <g id="Others" stroke="none" stroke-width="1" fill="none" fill-rule="evenodd" opacity="0.6">
        <g id="Menu-Logged" transform="translate(-33.000000, -272.000000)" stroke="#FFFFFF">
            <path d="M41.1091766,292.534303 C40.633384,291.938041 38.2261621,289.249055 37.813919,288.767367 C36.2343851,286.921754 35.1259292,285.38216 34.3938192,283.883889 C33.8099503,282.688995 33.5,281.569736 33.5,280.516001 C33.5,276.089124 37.0814832,272.5 41.5,272.5 C45.9185168,272.5 49.5,276.089124 49.5,280.516001 C49.5,281.569422 49.197477,282.688567 48.6272679,283.880196 C47.8796245,285.442628 46.722773,287.055514 45.0939286,288.947224 C44.4453988,289.700415 42.2498646,292.112329 41.8809491,292.546291 L41.4877861,293.008776 L41.1091766,292.534303 Z M41.5,283.774002 C43.2946866,283.774002 44.75,282.315584 44.75,280.516001 C44.75,278.716419 43.2946866,277.258001 41.5,277.258001 C39.7053134,277.258001 38.25,278.716419 38.25,280.516001 C38.25,282.315584 39.7053134,283.774002 41.5,283.774002 Z" id="Oval"></path>
        </g>
    </g>
</svg>