<?xml version="1.0" encoding="UTF-8"?>
<svg width="60px" height="60px" viewBox="0 0 60 60" version="1.1" xmlns="http://www.w3.org/2000/svg" xmlns:xlink="http://www.w3.org/1999/xlink">
    <!-- Generator: Sketch 52.6 (67491) - http://www.bohemiancoding.com/sketch -->
    <title>Add olor</title>
    <desc>Created with Sketch.</desc>
    <defs>
        <linearGradient x1="50%" y1="0%" x2="50%" y2="100%" id="linearGradient-1">
            <stop stop-color="#FFFFFF" offset="33.0895249%"></stop>
            <stop stop-color="#E1E7EC" offset="85.7940051%"></stop>
        </linearGradient>
        <linearGradient x1="50%" y1="40.622931%" x2="50%" y2="91.9199615%" id="linearGradient-2">
            <stop stop-color="#1CAD89" offset="40.0311597%"></stop>
            <stop stop-color="#159F7D" offset="97.7917269%"></stop>
        </linearGradient>
    </defs>
    <g id="Home" stroke="none" stroke-width="1" fill="none" fill-rule="evenodd">
        <g id="Home-Map" transform="translate(-130.000000, -484.000000)">
            <g id="footer" transform="translate(0.000000, 484.000000)">
                <g id="Add-olor" transform="translate(130.000000, 0.000000)">
                    <circle id="Oval-5" fill="url(#linearGradient-1)" cx="30" cy="30" r="30"></circle>
                    <circle id="Oval-5" fill="url(#linearGradient-2)" cx="30" cy="30" r="25"></circle>
                    <path d="M32.5,28.5 L41.5,28.5 C42.6045695,28.5 43.5,29.3954305 43.5,30.5 C43.5,31.6045695 42.6045695,32.5 41.5,32.5 L32.5,32.5 L32.5,41.5 C32.5,42.6045695 31.6045695,43.5 30.5,43.5 C29.3954305,43.5 28.5,42.6045695 28.5,41.5 L28.5,32.5 L19.5,32.5 C18.3954305,32.5 17.5,31.6045695 17.5,30.5 C17.5,29.3954305 18.3954305,28.5 19.5,28.5 L28.5,28.5 L28.5,19.5 C28.5,18.3954305 29.3954305,17.5 30.5,17.5 C31.6045695,17.5 32.5,18.3954305 32.5,19.5 L32.5,28.5 Z" id="Rectangle-6" stroke-opacity="0.05" stroke="#000000" stroke-width="1" fill="#FFFFFF"></path>
                </g>
            </g>
        </g>
    </g>
</svg>