<?xml version="1.0" encoding="UTF-8"?>
<svg width="21px" height="22px" viewBox="0 0 21 22" version="1.1" xmlns="http://www.w3.org/2000/svg" xmlns:xlink="http://www.w3.org/1999/xlink">
    <!-- Generator: Sketch 52.6 (67491) - http://www.bohemiancoding.com/sketch -->
    <title>Mis olores</title>
    <desc>Created with Sketch.</desc>
    <g id="Home" stroke="none" stroke-width="1" fill="none" fill-rule="evenodd">
        <g id="Home-Map" transform="translate(-51.000000, -519.000000)" stroke="#1CAD89">
            <g id="footer" transform="translate(0.000000, 484.000000)">
                <path d="M53.5,56.048913 C52.6715729,56.048913 52,55.3663906 52,54.5244565 C52,53.6825224 52.6715729,53 53.5,53 C54.3284271,53 55,53.6825224 55,54.5244565 C55,55.3663906 54.3284271,56.048913 53.5,56.048913 Z M55.5,49.048913 C54.6715729,49.048913 54,48.3663906 54,47.5244565 C54,46.6825224 54.6715729,46 55.5,46 C56.3284271,46 57,46.6825224 57,47.5244565 C57,48.3663906 56.3284271,49.048913 55.5,49.048913 Z M61.4090909,51.8967391 C60.0785867,51.8967391 59,50.8005667 59,49.4483696 C59,48.0961724 60.0785867,47 61.4090909,47 C62.7395951,47 63.8181818,48.0961724 63.8181818,49.4483696 C63.8181818,50.8005667 62.7395951,51.8967391 61.4090909,51.8967391 Z M56.5160428,42.048913 C55.1441911,42.048913 54.0320856,40.9186754 54.0320856,39.5244565 C54.0320856,38.1302377 55.1441911,37 56.5160428,37 C57.8878945,37 59,38.1302377 59,39.5244565 C59,40.9186754 57.8878945,42.048913 56.5160428,42.048913 Z M66.3770053,44.8967391 C63.959652,44.8967391 62,42.9051362 62,40.4483696 C62,37.9916029 63.959652,36 66.3770053,36 C68.7943587,36 70.7540107,37.9916029 70.7540107,40.4483696 C70.7540107,42.9051362 68.7943587,44.8967391 66.3770053,44.8967391 Z" id="Mis-olores"></path>
            </g>
        </g>
    </g>
</svg>