<?xml version="1.0" encoding="utf-8"?>
<!-- Generator: Adobe Illustrator 22.0.1, SVG Export Plug-In . SVG Version: 6.00 Build 0)  -->
<svg version="1.1" id="Capa_1" xmlns="http://www.w3.org/2000/svg" xmlns:xlink="http://www.w3.org/1999/xlink" x="0px" y="0px"
	 width="461px" height="149px" viewBox="0 0 461 149" style="enable-background:new 0 0 461 149;" xml:space="preserve">
<style type="text/css">
	.st0{filter:url(#Adobe_OpacityMaskFilter);}
	.st1{fill:#FFFFFF;}
	.st2{mask:url(#mask-2_1_);fill:#41AE76;}
	.st3{filter:url(#Adobe_OpacityMaskFilter_1_);}
	.st4{mask:url(#mask-4_1_);fill:#41AE76;}
	.st5{fill:#41AE76;}
	.st6{filter:url(#Adobe_OpacityMaskFilter_2_);}
	.st7{mask:url(#mask-6_1_);fill:#41AE76;}
</style>
<title>horizontal</title>
<desc>Created with Sketch.</desc>
<g id="Page-1">
	<g id="Pixel" transform="translate(-164.000000, -1072.000000)">
		<g id="horizontal" transform="translate(164.000000, 1072.000000)">
			<g id="texto" transform="translate(167.000000, 6.000000)">
				<g id="Group-3" transform="translate(2.000000, 83.462000)">
					<g id="Clip-2">
					</g>
					<defs>
						<filter id="Adobe_OpacityMaskFilter" filterUnits="userSpaceOnUse" x="0.3" y="0.3" width="42.7" height="51.7">
							<feColorMatrix  type="matrix" values="1 0 0 0 0  0 1 0 0 0  0 0 1 0 0  0 0 0 1 0"/>
						</filter>
					</defs>
					<mask maskUnits="userSpaceOnUse" x="0.3" y="0.3" width="42.7" height="51.7" id="mask-2_1_">
						<g class="st0">
							<polygon id="path-1_1_" class="st1" points="0.3,0.3 42.9,0.3 42.9,52 0.3,52 							"/>
						</g>
					</mask>
					<path id="Fill-1" class="st2" d="M24.4,0.3c11.4,0,17.3,6.6,17.3,6.6l-3.3,5.2c0,0-5.5-5.5-13.7-5.5
						c-10.6,0-17.5,8.5-17.5,19.1c0,10.7,7.1,19.8,17.6,19.8c8.9,0,14.6-6.5,14.6-6.5l3.6,5c0,0-6.5,7.9-18.4,7.9
						C10.3,52,0.3,40.5,0.3,25.8C0.3,11.3,10.6,0.3,24.4,0.3"/>
				</g>
				<g id="Group-6" transform="translate(49.000000, 83.462000)">
					<g id="Clip-5">
					</g>
					<defs>
						<filter id="Adobe_OpacityMaskFilter_1_" filterUnits="userSpaceOnUse" x="0.4" y="0.3" width="48.7" height="51.7">
							<feColorMatrix  type="matrix" values="1 0 0 0 0  0 1 0 0 0  0 0 1 0 0  0 0 0 1 0"/>
						</filter>
					</defs>
					<mask maskUnits="userSpaceOnUse" x="0.4" y="0.3" width="48.7" height="51.7" id="mask-4_1_">
						<g class="st3">
							<polygon id="path-3_1_" class="st1" points="0.4,0.3 49.1,0.3 49.1,52 0.4,52 							"/>
						</g>
					</mask>
					<path id="Fill-4" class="st4" d="M24.8,45.5c9.7,0,17.5-8.5,17.5-19.8c0-10.9-7.8-19.1-17.5-19.1S7.3,14.9,7.3,25.8
						C7.3,37,15.2,45.5,24.8,45.5 M24.8,0.3c13.7,0,24.3,11.1,24.3,25.5C49.1,40.5,38.5,52,24.8,52S0.4,40.5,0.4,25.8
						C0.4,11.4,11.1,0.3,24.8,0.3"/>
				</g>
				<polygon id="Fill-7" class="st5" points="106.8,84.6 113.5,84.6 113.5,128.5 134.7,128.5 134.7,134.6 106.8,134.6 				"/>
				<polygon id="Fill-9" class="st5" points="141.3,84.6 148,84.6 148,128.5 169.2,128.5 169.2,134.6 141.3,134.6 				"/>
				<polygon id="Fill-11" class="st5" points="175.8,84.6 203.4,84.6 203.4,90.7 182.5,90.7 182.5,106.3 199.5,106.3 199.5,112.4 
					182.5,112.4 182.5,128.5 204.5,128.5 204.5,134.6 175.8,134.6 				"/>
				<g id="Group-15" transform="translate(209.000000, 83.462000)">
					<g id="Clip-14">
					</g>
					<defs>
						<filter id="Adobe_OpacityMaskFilter_2_" filterUnits="userSpaceOnUse" x="0.8" y="0.3" width="42.7" height="51.7">
							<feColorMatrix  type="matrix" values="1 0 0 0 0  0 1 0 0 0  0 0 1 0 0  0 0 0 1 0"/>
						</filter>
					</defs>
					<mask maskUnits="userSpaceOnUse" x="0.8" y="0.3" width="42.7" height="51.7" id="mask-6_1_">
						<g class="st6">
							<polygon id="path-5_1_" class="st1" points="0.8,0.3 43.4,0.3 43.4,52 0.8,52 							"/>
						</g>
					</mask>
					<path id="Fill-13" class="st7" d="M24.9,0.3c11.4,0,17.3,6.6,17.3,6.6l-3.3,5.2c0,0-5.5-5.5-13.7-5.5
						c-10.6,0-17.5,8.5-17.5,19.1c0,10.7,7.1,19.8,17.6,19.8c8.9,0,14.6-6.5,14.6-6.5l3.6,5c0,0-6.5,7.9-18.4,7.9
						C10.8,52,0.8,40.5,0.8,25.8C0.8,11.3,11.1,0.3,24.9,0.3"/>
				</g>
				<polygon id="Fill-16" class="st5" points="270.6,90.7 254.4,90.7 254.4,84.6 293.5,84.6 293.5,90.7 277.3,90.7 277.3,134.6 
					270.6,134.6 				"/>
				<path id="Fill-18" class="st5" d="M29.5,52c11.7,0,21.1-9.8,21.1-22.7c0-12.5-9.4-22-21.1-22c-11.7,0-21.2,9.4-21.2,22
					C8.3,42.2,17.8,52,29.5,52 M29.5,0C46.1,0,59,12.8,59,29.3c0,16.9-12.8,30.1-29.4,30.1C12.9,59.4,0,46.2,0,29.3
					C0,12.8,12.9,0,29.5,0"/>
				<path id="Fill-20" class="st5" d="M87.9,51.4c12.9,0,21.4-7.6,21.4-21.8c0-14.1-8.5-21.6-21.4-21.6H77.5v43.4H87.9z M69.5,1h19
					c17.6,0,29.1,10.5,29.1,28.6c0,18.2-11.5,28.8-29.1,28.8h-19V1z"/>
				<path id="Fill-22" class="st5" d="M154,52c11.7,0,21.1-9.8,21.1-22.7c0-12.5-9.4-22-21.1-22c-11.7,0-21.2,9.4-21.2,22
					C132.8,42.2,142.3,52,154,52 M154,0c16.6,0,29.4,12.8,29.4,29.3c0,16.9-12.8,30.1-29.4,30.1c-16.6,0-29.5-13.2-29.5-30.1
					C124.5,12.8,137.4,0,154,0"/>
				<path id="Fill-24" class="st5" d="M193.2,1h8v37.1c0,8.8,5.7,13.9,14.5,13.9c8.9,0,14.6-5.1,14.6-14.1V1h8.1v37.1
					c0,12.8-9.2,21.3-22.6,21.3c-13.4,0-22.6-8.5-22.6-21.3V1z"/>
				<path id="Fill-26" class="st5" d="M271.6,28.5c6.3,0,10.2-4,10.2-10.4c0-4.2-1.6-7.2-4.6-8.9c-1.5-0.8-3.4-1.3-7.9-1.3H260v20.6
					H271.6z M252,1h17.6c6,0,8.5,0.5,10.7,1.3c5.9,2.2,9.7,8,9.7,15.5c0,7.3-4.1,13.5-10.3,15.5v0.2c0,0,0.7,0.7,1.7,2.6l12.2,22.3
					h-9.1l-12.1-22.9H260v22.9H252V1z"/>
			</g>
			<g>
				<g>
					<path class="st5" d="M102.2,34.5c-0.1-0.1-0.2-0.2-0.3-0.3C80.2,14.4,45.8,17,28.6,40.8c-14.8,20.4-11.7,49.1,7.7,65.8
						c5,4.3,10.6,7.4,16.5,9.3c0,0,2.6,0.9,7.2,2.2c4.9,1.4,7.8,6.4,6.5,11.3v0c-1.1,4.2-4.2,6.5-8.7,6.2c-0.4,0-1.4-0.2-1.8-0.3
						l-1.8-0.6c0,0,2.4,0.8,2.4,0.8c-11.1-3.6-25-9.2-31.9-15.1C-3.4,96.3-6.6,54.1,17.4,26s66.2-30.9,94.2-6.9
						c0.9,0.8,1.3,1.2,2.2,2.1c4.2,3.8,3.8,11,0,13.6l0,0C110.5,37.5,105.4,37.5,102.2,34.5z"/>
					<path class="st5" d="M131.3,50.8c5.2,12.4,12.8,34.7,18.5,70.7c1.8,11.2-6.4,21.5-17.7,22.3c-20.2,1.3-33.2,0.8-44.6-0.6
						c-4.5-0.6-9.2-4.7-7.9-10.3l0,0c1-5.2,5.5-7.7,10.7-7.1c11.9,1.4,24.6,2.3,38.5,1.2c2.9-0.2,5.5-2.6,4.7-7.2
						c-5.5-29.2-12.6-49.9-17.7-62.2c-2.1-5-0.3-10.6,4.1-12.3l0,0C125,42.9,129.2,45.8,131.3,50.8z"/>
					<circle class="st5" cx="69.5" cy="70.4" r="16"/>
				</g>
			</g>
		</g>
	</g>
</g>
</svg>
