<?xml version="1.0" encoding="UTF-8"?>
<svg width="27px" height="27px" viewBox="0 0 27 27" version="1.1" xmlns="http://www.w3.org/2000/svg" xmlns:xlink="http://www.w3.org/1999/xlink">
    <!-- Generator: Sketch 52.6 (67491) - http://www.bohemiancoding.com/sketch -->
    <title>like-on</title>
    <desc>Created with Sketch.</desc>
    <g id="Home" stroke="none" stroke-width="1" fill="none" fill-rule="evenodd">
        <g id="spot-selected" transform="translate(-182.000000, -492.000000)" fill="#00B187" stroke="#1CAD89">
            <g id="caja" transform="translate(0.000000, 212.000000)">
                <g id="like-on" transform="translate(183.000000, 281.000000)">
                    <g id="like-copy">
                        <g id="iconfinder_038_031_like_social_network_friends_android_material_1646933" fill-rule="nonzero">
                            <path d="M22.2527473,8.82352941 C23.770013,8.82352941 25,10.140339 25,11.7647059 L25,13.9705882 L21.0510714,22.5401029 C20.3570236,24.0463386 18.924309,25.0000039 17.3555082,25 L8.51648352,25 C6.99921772,25 5.76923077,23.6831904 5.76923077,22.0588235 L5.76923077,10.675 C5.76925687,9.66731241 6.09148166,8.68999669 6.68232143,7.90557353 L12.6373626,0 L14.010989,0 C14.7696219,0 15.3846154,0.65840478 15.3846154,1.47058824 L15.3846154,8.82352941 L22.2527473,8.82352941 Z M0,9.61538462 L3.84615385,9.61538462 L3.84615385,25 L0,25 L0,9.61538462 Z" id="Shape"></path>
                        </g>
                    </g>
                </g>
            </g>
        </g>
    </g>
</svg>