<?xml version="1.0" encoding="UTF-8"?>
<svg width="13px" height="13px" viewBox="0 0 13 13" version="1.1" xmlns="http://www.w3.org/2000/svg" xmlns:xlink="http://www.w3.org/1999/xlink">
    <!-- Generator: Sketch 51.3 (57544) - http://www.bohemiancoding.com/sketch -->
    <title>like</title>
    <desc>Created with Sketch.</desc>
    <defs></defs>
    <g id="Home" stroke="none" stroke-width="1" fill="none" fill-rule="evenodd">
        <g id="spot-selected" transform="translate(-189.000000, -400.000000)" fill="#4E5866">
            <g id="caja" transform="translate(0.000000, 212.000000)">
                <g id="like" transform="translate(189.000000, 188.000000)">
                    <g id="iconfinder_038_031_like_social_network_friends_android_material_1646933">
                        <rect id="Rectangle-path" fill-rule="nonzero" x="0" y="5" width="2" height="8"></rect>
                        <path d="M11.5714286,4.58823529 L8,4.58823529 L8,0.764705882 C8,0.342370485 7.68020339,0 7.28571429,0 L6.57142857,0 L3.47480714,4.11089824 C3.16757046,4.51879828 3.00001357,5.02700245 3,5.551 L3,11.4705882 C3,12.315259 3.63959321,13 4.42857143,13 L9.02486429,13 C9.8406407,13.000002 10.5856523,12.5040961 10.9465571,11.7208535 L13,7.26470588 L13,6.11764706 C13,5.27297626 12.3604068,4.58823529 11.5714286,4.58823529 Z" id="Shape" fill-rule="nonzero"></path>
                    </g>
                </g>
            </g>
        </g>
    </g>
</svg>