<?xml version="1.0" encoding="UTF-8"?>
<svg width="37px" height="37px" viewBox="0 0 37 37" version="1.1" xmlns="http://www.w3.org/2000/svg" xmlns:xlink="http://www.w3.org/1999/xlink">
    <!-- Generator: Sketch 51.3 (57544) - http://www.bohemiancoding.com/sketch -->
    <title>info map</title>
    <desc>Created with Sketch.</desc>
    <defs>
        <circle id="path-1" cx="14.5" cy="14.5" r="14.5"></circle>
        <filter x="-24.1%" y="-17.2%" width="148.3%" height="148.3%" filterUnits="objectBoundingBox" id="filter-2">
            <feOffset dx="0" dy="2" in="SourceAlpha" result="shadowOffsetOuter1"></feOffset>
            <feGaussianBlur stdDeviation="2" in="shadowOffsetOuter1" result="shadowBlurOuter1"></feGaussianBlur>
            <feColorMatrix values="0 0 0 0 0   0 0 0 0 0   0 0 0 0 0  0 0 0 0.5 0" type="matrix" in="shadowBlurOuter1"></feColorMatrix>
        </filter>
    </defs>
    <g id="Symbols" stroke="none" stroke-width="1" fill="none" fill-rule="evenodd">
        <g id="info-map" transform="translate(4.000000, 2.000000)">
            <g>
                <g id="Oval-5">
                    <use fill="black" fill-opacity="1" filter="url(#filter-2)" xlink:href="#path-1"></use>
                    <use fill="#FFFFFF" fill-rule="evenodd" xlink:href="#path-1"></use>
                </g>
                <path d="M13.6323242,16.7373047 L13.6323242,16.0869141 C13.6323242,15.5244112 13.7524402,15.0351583 13.9926758,14.6191406 C14.2329114,14.2031229 14.6723601,13.7607445 15.3110352,13.2919922 C15.9262726,12.8525369 16.3320303,12.4951186 16.5283203,12.2197266 C16.7246104,11.9443346 16.8227539,11.6367204 16.8227539,11.296875 C16.8227539,10.9160137 16.6821303,10.6259776 16.4008789,10.4267578 C16.1196275,10.2275381 15.7270533,10.1279297 15.2231445,10.1279297 C14.3442339,10.1279297 13.3422908,10.4150362 12.2172852,10.9892578 L11.2592773,9.06445312 C12.5659245,8.33202759 13.9516528,7.96582031 15.4165039,7.96582031 C16.6235412,7.96582031 17.5830043,8.25585647 18.2949219,8.8359375 C19.0068395,9.41601853 19.362793,10.1894483 19.362793,11.15625 C19.362793,11.8007845 19.2163101,12.3574195 18.9233398,12.8261719 C18.6303696,13.2949242 18.0737346,13.8222627 17.253418,14.4082031 C16.6909152,14.8242208 16.3349617,15.1406239 16.1855469,15.3574219 C16.0361321,15.5742198 15.9614258,15.8583967 15.9614258,16.2099609 L15.9614258,16.7373047 L13.6323242,16.7373047 Z M13.3510742,19.7431641 C13.3510742,19.2509741 13.4829088,18.8789075 13.746582,18.6269531 C14.0102552,18.3749987 14.3940404,18.2490234 14.8979492,18.2490234 C15.3842798,18.2490234 15.7607409,18.3779284 16.0273438,18.6357422 C16.2939466,18.893556 16.4272461,19.2626929 16.4272461,19.7431641 C16.4272461,20.206057 16.2924818,20.5707994 16.0229492,20.8374023 C15.7534166,21.1040052 15.3784204,21.2373047 14.8979492,21.2373047 C14.4057593,21.2373047 14.0249037,21.1069349 13.7553711,20.8461914 C13.4858385,20.5854479 13.3510742,20.2177758 13.3510742,19.7431641 Z" id="?" fill="#606060"></path>
            </g>
        </g>
    </g>
</svg>