<?xml version="1.0" encoding="UTF-8"?>
<svg width="21px" height="21px" viewBox="0 0 21 21" version="1.1" xmlns="http://www.w3.org/2000/svg" xmlns:xlink="http://www.w3.org/1999/xlink">
    <!-- Generator: Sketch 51.3 (57544) - http://www.bohemiancoding.com/sketch -->
    <title>info create</title>
    <desc>Created with Sketch.</desc>
    <defs></defs>
    <g id="Home" stroke="none" stroke-width="1" fill="none" fill-rule="evenodd">
        <g id="nuevo-olor-1" transform="translate(-290.000000, -125.000000)">
            <g id="info-create" transform="translate(291.000000, 126.000000)">
                <g id="info-map">
                    <g>
                        <circle id="Oval-5" stroke="#A0AEC0" cx="9.5" cy="9.5" r="9.5"></circle>
                        <path d="M8.5672,11.2595112 L8.5672,10.7546215 C8.5672,10.3179579 8.66044446,9.93815727 8.8469362,9.61520817 C9.03342793,9.29225907 9.37456623,8.94884651 9.87036133,8.5849602 C10.3479621,8.24381679 10.6629465,7.96635764 10.8153239,7.75257443 C10.9677013,7.53879122 11.0438888,7.29999442 11.0438888,7.03617684 C11.0438888,6.74051921 10.9347246,6.51536794 10.7163928,6.36071625 C10.498061,6.20606457 10.1933108,6.12873989 9.80213299,6.12873989 C9.11984615,6.12873989 8.34205083,6.35161691 7.46872369,6.79737764 L6.72503476,5.30317695 C7.73936785,4.73460459 8.81509062,4.45032268 9.95223534,4.45032268 C10.8892426,4.45032268 11.6340612,4.67547396 12.1867135,5.12578326 C12.7393659,5.57609257 13.0156879,6.17649598 13.0156879,6.92701149 C13.0156879,7.42735517 12.9019751,7.85946368 12.6745462,8.22334999 C12.4471172,8.5872363 12.0150087,8.99660226 11.3782077,9.45146015 C10.9415441,9.77440925 10.6652221,10.0200288 10.5492333,10.1883262 C10.4332446,10.3566237 10.3752511,10.5772264 10.3752511,10.8501412 L10.3752511,11.2595112 L8.5672,11.2595112 Z M8.3488693,13.5929205 C8.3488693,13.2108399 8.45121079,12.9220095 8.65589684,12.7264206 C8.86058289,12.5308317 9.15851034,12.4330387 9.54968812,12.4330387 C9.92722017,12.4330387 10.219462,12.5331059 10.4264223,12.7332434 C10.6333827,12.9333809 10.7368613,13.219937 10.7368613,13.5929205 C10.7368613,13.9522582 10.6322455,14.235403 10.4230109,14.4423634 C10.2137763,14.6493237 9.92267159,14.7528023 9.54968812,14.7528023 C9.1676075,14.7528023 8.8719543,14.651598 8.66271967,14.4491862 C8.45348505,14.2467744 8.3488693,13.9613554 8.3488693,13.5929205 Z" id="?" fill="#A0AEC0"></path>
                    </g>
                </g>
            </g>
        </g>
    </g>
</svg>