<?xml version="1.0" encoding="UTF-8"?>
<svg width="22px" height="18px" viewBox="0 0 22 18" version="1.1" xmlns="http://www.w3.org/2000/svg" xmlns:xlink="http://www.w3.org/1999/xlink">
    <!-- Generator: Sketch 51.3 (57544) - http://www.bohemiancoding.com/sketch -->
    <title>Menu</title>
    <desc>Created with Sketch.</desc>
    <defs></defs>
    <g id="Home" stroke="none" stroke-width="1" fill="none" fill-rule="evenodd">
        <g id="Home-Map" transform="translate(-277.000000, -37.000000)" fill="#6B7C93">
            <g id="header" transform="translate(0.000000, 20.000000)">
                <g id="Menu" transform="translate(277.000000, 17.000000)">
                    <path d="M0,0.504684448 C0,0.225954924 0.217741728,0 0.500836134,0 L21.4991639,0 C21.775768,0 22,0.214035034 22,0.504684448 L22,1.49531555 C22,1.77404508 21.7822583,2 21.4991639,2 L0.500836134,2 C0.224231975,2 0,1.78596497 0,1.49531555 L0,0.504684448 Z M0,16.5046844 C0,16.2259549 0.217741728,16 0.500836134,16 L21.4991639,16 C21.775768,16 22,16.214035 22,16.5046844 L22,17.4953156 C22,17.7740451 21.7822583,18 21.4991639,18 L0.500836134,18 C0.224231975,18 0,17.785965 0,17.4953156 L0,16.5046844 Z M0,8.50468445 C0,8.22595492 0.217741728,8 0.500836134,8 L21.4991639,8 C21.775768,8 22,8.21403503 22,8.50468445 L22,9.49531555 C22,9.77404508 21.7822583,10 21.4991639,10 L0.500836134,10 C0.224231975,10 0,9.78596497 0,9.49531555 L0,8.50468445 Z"></path>
                </g>
            </g>
        </g>
    </g>
</svg>